<?xml version="1.0" encoding="UTF-8" standalone="no"?>
<!DOCTYPE svg PUBLIC "-//W3C//DTD SVG 1.1//EN" "http://www.w3.org/Graphics/SVG/1.1/DTD/svg11.dtd">
<svg width="100%" height="100%" viewBox="0 0 140 218" version="1.1" xmlns="http://www.w3.org/2000/svg" xmlns:xlink="http://www.w3.org/1999/xlink" xml:space="preserve" xmlns:serif="http://www.serif.com/" style="fill-rule:evenodd;clip-rule:evenodd;stroke-linejoin:round;stroke-miterlimit:2;">
    <g transform="matrix(1,0,0,1,-892.191,-675.632)">
        <g transform="matrix(1,0,0,1,854.522,597.632)">
            <g transform="matrix(400,0,0,400,11.6685,296)">
                <path d="M0.125,-0C0.108,-0 0.093,-0.006 0.082,-0.018C0.071,-0.029 0.065,-0.044 0.065,-0.061L0.065,-0.474C0.065,-0.491 0.071,-0.506 0.082,-0.518C0.093,-0.529 0.108,-0.535 0.125,-0.535C0.142,-0.535 0.157,-0.529 0.168,-0.518C0.179,-0.506 0.185,-0.491 0.185,-0.474L0.185,-0.38L0.178,-0.447C0.185,-0.463 0.195,-0.477 0.207,-0.49C0.218,-0.502 0.231,-0.512 0.246,-0.521C0.261,-0.529 0.276,-0.535 0.293,-0.539C0.31,-0.543 0.326,-0.545 0.343,-0.545C0.363,-0.545 0.38,-0.539 0.394,-0.528C0.407,-0.517 0.414,-0.503 0.414,-0.488C0.414,-0.466 0.408,-0.45 0.397,-0.441C0.386,-0.431 0.373,-0.426 0.36,-0.426C0.347,-0.426 0.336,-0.428 0.326,-0.433C0.315,-0.438 0.303,-0.44 0.29,-0.44C0.278,-0.44 0.266,-0.437 0.254,-0.432C0.241,-0.426 0.23,-0.417 0.22,-0.405C0.209,-0.393 0.201,-0.378 0.195,-0.361C0.188,-0.343 0.185,-0.322 0.185,-0.298L0.185,-0.061C0.185,-0.044 0.179,-0.029 0.168,-0.018C0.157,-0.006 0.142,-0 0.125,-0Z" style="fill:rgb(221,139,65);fill-rule:nonzero;"/>
            </g>
        </g>
    </g>
</svg>
