<?xml version="1.0" encoding="UTF-8" standalone="no"?>
<!DOCTYPE svg PUBLIC "-//W3C//DTD SVG 1.1//EN" "http://www.w3.org/Graphics/SVG/1.1/DTD/svg11.dtd">
<svg width="100%" height="100%" viewBox="0 0 1488 300" version="1.1" xmlns="http://www.w3.org/2000/svg" xmlns:xlink="http://www.w3.org/1999/xlink" xml:space="preserve" xmlns:serif="http://www.serif.com/" style="fill-rule:evenodd;clip-rule:evenodd;stroke-linejoin:round;stroke-miterlimit:2;">
    <g transform="matrix(1,0,0,1,-44,-35)">
        <g transform="matrix(1,0,0,1,2,4)">
            <g transform="matrix(400,0,0,400,16,327)">
                <path d="M0.125,-0C0.108,-0 0.093,-0.006 0.082,-0.018C0.071,-0.029 0.065,-0.044 0.065,-0.061L0.065,-0.474C0.065,-0.491 0.071,-0.506 0.082,-0.518C0.093,-0.529 0.108,-0.535 0.125,-0.535C0.142,-0.535 0.157,-0.529 0.168,-0.518C0.179,-0.506 0.185,-0.491 0.185,-0.474L0.185,-0.38L0.178,-0.447C0.185,-0.463 0.195,-0.477 0.207,-0.49C0.218,-0.502 0.231,-0.512 0.246,-0.521C0.261,-0.529 0.276,-0.535 0.293,-0.539C0.31,-0.543 0.326,-0.545 0.343,-0.545C0.363,-0.545 0.38,-0.539 0.394,-0.528C0.407,-0.517 0.414,-0.503 0.414,-0.488C0.414,-0.466 0.408,-0.45 0.397,-0.441C0.386,-0.431 0.373,-0.426 0.36,-0.426C0.347,-0.426 0.336,-0.428 0.326,-0.433C0.315,-0.438 0.303,-0.44 0.29,-0.44C0.278,-0.44 0.266,-0.437 0.254,-0.432C0.241,-0.426 0.23,-0.417 0.22,-0.405C0.209,-0.393 0.201,-0.378 0.195,-0.361C0.188,-0.343 0.185,-0.322 0.185,-0.298L0.185,-0.061C0.185,-0.044 0.179,-0.029 0.168,-0.018C0.157,-0.006 0.142,-0 0.125,-0Z" style="fill:rgb(221,139,65);fill-rule:nonzero;"/>
            </g>
            <g transform="matrix(400,0,0,400,184.8,327)">
                <path d="M0.503,-0.545C0.52,-0.545 0.535,-0.539 0.546,-0.528C0.557,-0.517 0.563,-0.502 0.563,-0.484L0.563,-0.061C0.563,-0.044 0.557,-0.029 0.546,-0.018C0.535,-0.006 0.52,-0 0.503,-0C0.486,-0 0.471,-0.006 0.46,-0.018C0.449,-0.029 0.443,-0.044 0.443,-0.061L0.443,-0.11L0.465,-0.101C0.465,-0.092 0.46,-0.082 0.451,-0.07C0.442,-0.057 0.429,-0.045 0.413,-0.033C0.397,-0.021 0.378,-0.011 0.357,-0.003C0.335,0.006 0.311,0.01 0.286,0.01C0.24,0.01 0.198,-0.002 0.161,-0.026C0.124,-0.049 0.094,-0.082 0.073,-0.124C0.051,-0.165 0.04,-0.213 0.04,-0.267C0.04,-0.322 0.051,-0.37 0.073,-0.412C0.094,-0.453 0.123,-0.486 0.16,-0.51C0.197,-0.533 0.237,-0.545 0.282,-0.545C0.311,-0.545 0.337,-0.541 0.361,-0.532C0.385,-0.523 0.406,-0.512 0.424,-0.499C0.441,-0.486 0.455,-0.472 0.465,-0.459C0.474,-0.445 0.479,-0.433 0.479,-0.424L0.443,-0.411L0.443,-0.484C0.443,-0.501 0.449,-0.516 0.46,-0.528C0.471,-0.539 0.486,-0.545 0.503,-0.545ZM0.301,-0.1C0.33,-0.1 0.356,-0.107 0.378,-0.122C0.4,-0.137 0.417,-0.157 0.43,-0.182C0.442,-0.207 0.448,-0.236 0.448,-0.267C0.448,-0.299 0.442,-0.328 0.43,-0.353C0.417,-0.378 0.4,-0.398 0.378,-0.413C0.356,-0.428 0.33,-0.435 0.301,-0.435C0.272,-0.435 0.247,-0.428 0.225,-0.413C0.203,-0.398 0.186,-0.378 0.174,-0.353C0.161,-0.328 0.155,-0.299 0.155,-0.267C0.155,-0.236 0.161,-0.207 0.174,-0.182C0.186,-0.157 0.203,-0.137 0.225,-0.122C0.247,-0.107 0.272,-0.1 0.301,-0.1Z" style="fill:rgb(221,139,65);fill-rule:nonzero;"/>
            </g>
            <g transform="matrix(400,0,0,400,436,327)">
                <path d="M0.303,-0.545C0.341,-0.545 0.374,-0.541 0.403,-0.533C0.431,-0.525 0.453,-0.514 0.469,-0.5C0.484,-0.485 0.492,-0.468 0.492,-0.448C0.492,-0.435 0.488,-0.422 0.48,-0.411C0.472,-0.399 0.46,-0.393 0.445,-0.393C0.434,-0.393 0.426,-0.395 0.419,-0.398C0.412,-0.401 0.405,-0.404 0.4,-0.409C0.395,-0.414 0.388,-0.418 0.381,-0.422C0.374,-0.426 0.364,-0.429 0.351,-0.432C0.337,-0.434 0.327,-0.435 0.32,-0.435C0.286,-0.435 0.257,-0.428 0.234,-0.413C0.21,-0.398 0.192,-0.379 0.179,-0.354C0.166,-0.329 0.16,-0.3 0.16,-0.267C0.16,-0.235 0.167,-0.206 0.18,-0.182C0.193,-0.157 0.211,-0.137 0.234,-0.122C0.257,-0.107 0.283,-0.1 0.313,-0.1C0.33,-0.1 0.344,-0.101 0.356,-0.103C0.368,-0.105 0.378,-0.108 0.386,-0.112C0.395,-0.117 0.404,-0.123 0.411,-0.129C0.418,-0.135 0.429,-0.138 0.444,-0.138C0.461,-0.138 0.475,-0.133 0.484,-0.122C0.493,-0.111 0.498,-0.097 0.498,-0.081C0.498,-0.064 0.489,-0.049 0.47,-0.036C0.451,-0.022 0.427,-0.011 0.397,-0.003C0.366,0.006 0.333,0.01 0.298,0.01C0.245,0.01 0.2,-0.002 0.161,-0.027C0.122,-0.051 0.093,-0.084 0.072,-0.126C0.051,-0.168 0.04,-0.215 0.04,-0.267C0.04,-0.322 0.051,-0.37 0.074,-0.412C0.096,-0.453 0.127,-0.486 0.167,-0.51C0.206,-0.533 0.252,-0.545 0.303,-0.545Z" style="fill:rgb(221,139,65);fill-rule:nonzero;"/>
            </g>
            <g transform="matrix(400,0,0,400,644,327)">
                <path d="M0.195,-0.061C0.195,-0.044 0.189,-0.029 0.178,-0.018C0.166,-0.006 0.151,-0 0.134,-0C0.117,-0 0.103,-0.006 0.092,-0.018C0.081,-0.029 0.075,-0.044 0.075,-0.061L0.075,-0.679C0.075,-0.696 0.081,-0.711 0.093,-0.723C0.104,-0.734 0.119,-0.74 0.136,-0.74C0.153,-0.74 0.167,-0.734 0.179,-0.723C0.19,-0.711 0.195,-0.696 0.195,-0.679L0.195,-0.061Z" style="fill:rgb(221,139,65);fill-rule:nonzero;"/>
            </g>
            <g transform="matrix(400,0,0,400,748,327)">
                <path d="M0.317,0.01C0.26,0.01 0.211,-0.002 0.17,-0.026C0.128,-0.049 0.096,-0.081 0.074,-0.122C0.051,-0.163 0.04,-0.209 0.04,-0.26C0.04,-0.32 0.052,-0.371 0.077,-0.414C0.101,-0.456 0.133,-0.488 0.172,-0.511C0.211,-0.534 0.253,-0.545 0.297,-0.545C0.331,-0.545 0.363,-0.538 0.394,-0.524C0.424,-0.51 0.451,-0.491 0.474,-0.467C0.497,-0.442 0.516,-0.414 0.53,-0.382C0.543,-0.35 0.55,-0.316 0.55,-0.28C0.549,-0.264 0.543,-0.251 0.531,-0.241C0.519,-0.231 0.505,-0.226 0.489,-0.226L0.107,-0.226L0.077,-0.326L0.444,-0.326L0.422,-0.306L0.422,-0.333C0.421,-0.352 0.414,-0.37 0.402,-0.385C0.389,-0.4 0.374,-0.413 0.356,-0.422C0.337,-0.431 0.318,-0.435 0.297,-0.435C0.277,-0.435 0.258,-0.432 0.241,-0.427C0.224,-0.422 0.209,-0.413 0.196,-0.4C0.183,-0.387 0.173,-0.37 0.166,-0.349C0.159,-0.328 0.155,-0.301 0.155,-0.268C0.155,-0.232 0.163,-0.202 0.178,-0.177C0.193,-0.152 0.212,-0.133 0.236,-0.12C0.259,-0.107 0.284,-0.1 0.311,-0.1C0.336,-0.1 0.355,-0.102 0.37,-0.106C0.385,-0.11 0.397,-0.115 0.406,-0.121C0.415,-0.126 0.423,-0.131 0.43,-0.135C0.442,-0.141 0.453,-0.144 0.464,-0.144C0.479,-0.144 0.491,-0.139 0.501,-0.129C0.51,-0.119 0.515,-0.107 0.515,-0.094C0.515,-0.076 0.506,-0.06 0.487,-0.045C0.47,-0.03 0.445,-0.017 0.414,-0.007C0.383,0.005 0.35,0.01 0.317,0.01Z" style="fill:rgb(221,139,65);fill-rule:nonzero;"/>
            </g>
            <g transform="matrix(400,0,0,400,984,327)">
                <path d="M0.071,-0.525L0.308,-0.525C0.324,-0.525 0.337,-0.52 0.348,-0.509C0.359,-0.498 0.364,-0.485 0.364,-0.469C0.364,-0.454 0.359,-0.441 0.348,-0.431C0.337,-0.42 0.324,-0.415 0.308,-0.415L0.071,-0.415C0.055,-0.415 0.042,-0.42 0.031,-0.431C0.02,-0.442 0.015,-0.455 0.015,-0.471C0.015,-0.486 0.02,-0.499 0.031,-0.51C0.042,-0.52 0.055,-0.525 0.071,-0.525ZM0.178,-0.65C0.195,-0.65 0.21,-0.644 0.221,-0.633C0.232,-0.621 0.237,-0.606 0.237,-0.589L0.237,-0.144C0.237,-0.135 0.239,-0.127 0.243,-0.121C0.246,-0.115 0.251,-0.111 0.258,-0.108C0.264,-0.105 0.271,-0.104 0.278,-0.104C0.286,-0.104 0.293,-0.106 0.3,-0.109C0.307,-0.112 0.314,-0.113 0.323,-0.113C0.332,-0.113 0.341,-0.109 0.349,-0.1C0.356,-0.091 0.36,-0.079 0.36,-0.064C0.36,-0.045 0.35,-0.03 0.33,-0.018C0.309,-0.006 0.287,-0 0.264,-0C0.25,-0 0.235,-0.001 0.218,-0.004C0.201,-0.006 0.185,-0.012 0.17,-0.021C0.155,-0.03 0.142,-0.043 0.132,-0.062C0.122,-0.081 0.117,-0.106 0.117,-0.139L0.117,-0.589C0.117,-0.606 0.123,-0.621 0.135,-0.633C0.146,-0.644 0.161,-0.65 0.178,-0.65Z" style="fill:rgb(221,139,65);fill-rule:nonzero;"/>
            </g>
            <g transform="matrix(400,0,0,400,1147.6,327)">
                <path d="M0.071,-0.525L0.308,-0.525C0.324,-0.525 0.337,-0.52 0.348,-0.509C0.359,-0.498 0.364,-0.485 0.364,-0.469C0.364,-0.454 0.359,-0.441 0.348,-0.431C0.337,-0.42 0.324,-0.415 0.308,-0.415L0.071,-0.415C0.055,-0.415 0.042,-0.42 0.031,-0.431C0.02,-0.442 0.015,-0.455 0.015,-0.471C0.015,-0.486 0.02,-0.499 0.031,-0.51C0.042,-0.52 0.055,-0.525 0.071,-0.525ZM0.178,-0.65C0.195,-0.65 0.21,-0.644 0.221,-0.633C0.232,-0.621 0.237,-0.606 0.237,-0.589L0.237,-0.144C0.237,-0.135 0.239,-0.127 0.243,-0.121C0.246,-0.115 0.251,-0.111 0.258,-0.108C0.264,-0.105 0.271,-0.104 0.278,-0.104C0.286,-0.104 0.293,-0.106 0.3,-0.109C0.307,-0.112 0.314,-0.113 0.323,-0.113C0.332,-0.113 0.341,-0.109 0.349,-0.1C0.356,-0.091 0.36,-0.079 0.36,-0.064C0.36,-0.045 0.35,-0.03 0.33,-0.018C0.309,-0.006 0.287,-0 0.264,-0C0.25,-0 0.235,-0.001 0.218,-0.004C0.201,-0.006 0.185,-0.012 0.17,-0.021C0.155,-0.03 0.142,-0.043 0.132,-0.062C0.122,-0.081 0.117,-0.106 0.117,-0.139L0.117,-0.589C0.117,-0.606 0.123,-0.621 0.135,-0.633C0.146,-0.644 0.161,-0.65 0.178,-0.65Z" style="fill:rgb(221,139,65);fill-rule:nonzero;"/>
            </g>
            <g transform="matrix(400,0,0,400,1309.2,327)">
                <path d="M0.317,0.01C0.26,0.01 0.211,-0.002 0.17,-0.026C0.128,-0.049 0.096,-0.081 0.074,-0.122C0.051,-0.163 0.04,-0.209 0.04,-0.26C0.04,-0.32 0.052,-0.371 0.077,-0.414C0.101,-0.456 0.133,-0.488 0.172,-0.511C0.211,-0.534 0.253,-0.545 0.297,-0.545C0.331,-0.545 0.363,-0.538 0.394,-0.524C0.424,-0.51 0.451,-0.491 0.474,-0.467C0.497,-0.442 0.516,-0.414 0.53,-0.382C0.543,-0.35 0.55,-0.316 0.55,-0.28C0.549,-0.264 0.543,-0.251 0.531,-0.241C0.519,-0.231 0.505,-0.226 0.489,-0.226L0.107,-0.226L0.077,-0.326L0.444,-0.326L0.422,-0.306L0.422,-0.333C0.421,-0.352 0.414,-0.37 0.402,-0.385C0.389,-0.4 0.374,-0.413 0.356,-0.422C0.337,-0.431 0.318,-0.435 0.297,-0.435C0.277,-0.435 0.258,-0.432 0.241,-0.427C0.224,-0.422 0.209,-0.413 0.196,-0.4C0.183,-0.387 0.173,-0.37 0.166,-0.349C0.159,-0.328 0.155,-0.301 0.155,-0.268C0.155,-0.232 0.163,-0.202 0.178,-0.177C0.193,-0.152 0.212,-0.133 0.236,-0.12C0.259,-0.107 0.284,-0.1 0.311,-0.1C0.336,-0.1 0.355,-0.102 0.37,-0.106C0.385,-0.11 0.397,-0.115 0.406,-0.121C0.415,-0.126 0.423,-0.131 0.43,-0.135C0.442,-0.141 0.453,-0.144 0.464,-0.144C0.479,-0.144 0.491,-0.139 0.501,-0.129C0.51,-0.119 0.515,-0.107 0.515,-0.094C0.515,-0.076 0.506,-0.06 0.487,-0.045C0.47,-0.03 0.445,-0.017 0.414,-0.007C0.383,0.005 0.35,0.01 0.317,0.01Z" style="fill:rgb(221,139,65);fill-rule:nonzero;"/>
            </g>
            <g transform="matrix(400,0,0,400,1545.2,327)">
            </g>
        </g>
    </g>
</svg>
